<mxfile host="app.diagrams.net" modified="2024-05-28T13:00:35.717Z" agent="Mozilla/5.0 (Windows NT 10.0; Win64; x64) AppleWebKit/537.36 (KHTML, like Gecko) Chrome/125.0.0.0 Safari/537.36" etag="J0loXP7ubFuASS44P9Vs" version="24.4.9" type="github">
  <diagram name="Page-1" id="bd83a815-5ea8-2e97-e5ec-87c9f400f2fa">
    <mxGraphModel dx="1222" dy="628" grid="1" gridSize="10" guides="1" tooltips="1" connect="1" arrows="1" fold="1" page="1" pageScale="1.5" pageWidth="1169" pageHeight="826" background="none" math="0" shadow="0">
      <root>
        <mxCell id="0" style=";html=1;" />
        <mxCell id="1" style=";html=1;" parent="0" />
        <mxCell id="1516e18e63f93b96-1" value="&lt;table border=&quot;1&quot; width=&quot;100%&quot; cellpadding=&quot;4&quot; style=&quot;width: 100% ; height: 100% ; border-collapse: collapse&quot;&gt;&lt;tbody&gt;&lt;tr style=&quot;background-color: #a7c942 ; color: #ffffff ; border: 1px solid #98bf21&quot;&gt;&lt;th style=&quot;&quot;&gt;id&lt;/th&gt;&lt;th&gt;name&lt;/th&gt;&lt;th&gt;email&lt;/th&gt;&lt;th&gt;password&lt;/th&gt;&lt;/tr&gt;&lt;tr style=&quot;border: 1px solid #98bf21&quot;&gt;&lt;td style=&quot;background-color: #a7c942 ; color: #ffffff ; border: 1px solid #98bf21&quot;&gt;1&lt;/td&gt;&lt;td&gt;John Neue&lt;/td&gt;&lt;td&gt;john@example.com&lt;/td&gt;&lt;td&gt;#@$asdf12&lt;/td&gt;&lt;/tr&gt;&lt;tr style=&quot;background-color: #eaf2d3 ; border: 1px solid #98bf21&quot;&gt;&lt;td style=&quot;background-color: #a7c942 ; color: #ffffff ; border: 1px solid #98bf21&quot;&gt;2&lt;/td&gt;&lt;td&gt;Albert Montserrat&lt;/td&gt;&lt;td&gt;albert@example.com&lt;/td&gt;&lt;td&gt;$%^gfa1*!&lt;/td&gt;&lt;/tr&gt;&lt;tr style=&quot;border: 1px solid #98bf21&quot;&gt;&lt;td style=&quot;background-color: #a7c942 ; color: #ffffff ; border: 1px solid #98bf21&quot;&gt;3&lt;/td&gt;&lt;td&gt;Al Bryan&lt;/td&gt;&lt;td&gt;bryan@example.com&lt;/td&gt;&lt;td&gt;$%16p1$%&lt;/td&gt;&lt;/tr&gt;&lt;tr style=&quot;background-color: #eaf2d3 ; border: 1px solid #98bf21&quot;&gt;&lt;td style=&quot;background-color: #a7c942 ; color: #ffffff ; border: 1px solid #98bf21&quot;&gt;4&lt;/td&gt;&lt;td&gt;Wassen Torp&lt;/td&gt;&lt;td&gt;wassen@example.com&lt;/td&gt;&lt;td&gt;&quot;}{$%^G1&lt;/td&gt;&lt;/tr&gt;&lt;/tbody&gt;&lt;/table&gt;" style="text;html=1;overflow=fill;rounded=0;shadow=0;fontSize=14;align=center;" parent="1" vertex="1">
          <mxGeometry x="250" y="150" width="910" height="350" as="geometry" />
        </mxCell>
        <mxCell id="UpNpqDJYKlMEkV9YRlDN-5" value="List" style="swimlane;fontStyle=0;childLayout=stackLayout;horizontal=1;startSize=26;horizontalStack=0;resizeParent=1;resizeParentMax=0;resizeLast=0;collapsible=1;marginBottom=0;html=1;rounded=0;shadow=0;fillStyle=auto;align=center;verticalAlign=top;fontFamily=Helvetica;fontSize=14;labelBorderColor=none;labelBackgroundColor=none;fillColor=#0066CC;fontColor=#FFFFFF;" vertex="1" parent="1">
          <mxGeometry x="370" y="850" width="110" height="130" as="geometry" />
        </mxCell>
        <mxCell id="UpNpqDJYKlMEkV9YRlDN-6" value="&lt;span style=&quot;&quot;&gt;&lt;font&gt;id&lt;/font&gt;&lt;/span&gt;" style="text;align=center;verticalAlign=top;spacingLeft=4;spacingRight=4;overflow=hidden;rotatable=0;points=[[0,0.5],[1,0.5]];portConstraint=eastwest;whiteSpace=wrap;html=1;fontFamily=Helvetica;fontSize=14;labelBorderColor=none;labelBackgroundColor=none;fillColor=#000000;fontColor=#FCFCFC;strokeColor=#666666;" vertex="1" parent="UpNpqDJYKlMEkV9YRlDN-5">
          <mxGeometry y="26" width="110" height="26" as="geometry" />
        </mxCell>
        <mxCell id="UpNpqDJYKlMEkV9YRlDN-7" value="&lt;span style=&quot;&quot;&gt;&lt;font&gt;name&lt;/font&gt;&lt;/span&gt;" style="text;strokeColor=none;fillColor=#000000;align=center;verticalAlign=top;spacingLeft=4;spacingRight=4;overflow=hidden;rotatable=0;points=[[0,0.5],[1,0.5]];portConstraint=eastwest;whiteSpace=wrap;html=1;fontFamily=Helvetica;fontSize=14;fontColor=#FFFFFF;labelBorderColor=none;labelBackgroundColor=none;" vertex="1" parent="UpNpqDJYKlMEkV9YRlDN-5">
          <mxGeometry y="52" width="110" height="26" as="geometry" />
        </mxCell>
        <mxCell id="UpNpqDJYKlMEkV9YRlDN-8" value="email" style="text;strokeColor=none;fillColor=#000000;align=center;verticalAlign=top;spacingLeft=4;spacingRight=4;overflow=hidden;rotatable=0;points=[[0,0.5],[1,0.5]];portConstraint=eastwest;whiteSpace=wrap;html=1;fontFamily=Helvetica;fontSize=14;fontColor=#FFFFFF;labelBorderColor=none;labelBackgroundColor=none;" vertex="1" parent="UpNpqDJYKlMEkV9YRlDN-5">
          <mxGeometry y="78" width="110" height="26" as="geometry" />
        </mxCell>
        <mxCell id="UpNpqDJYKlMEkV9YRlDN-9" value="password" style="text;strokeColor=none;fillColor=#080808;align=center;verticalAlign=top;spacingLeft=4;spacingRight=4;overflow=hidden;rotatable=0;points=[[0,0.5],[1,0.5]];portConstraint=eastwest;whiteSpace=wrap;html=1;fontFamily=Helvetica;fontSize=14;fontColor=#FFFFFF;labelBorderColor=none;labelBackgroundColor=none;" vertex="1" parent="UpNpqDJYKlMEkV9YRlDN-5">
          <mxGeometry y="104" width="110" height="26" as="geometry" />
        </mxCell>
        <mxCell id="UpNpqDJYKlMEkV9YRlDN-10" value="address" style="swimlane;fontStyle=0;childLayout=stackLayout;horizontal=1;startSize=26;fillColor=#0066CC;horizontalStack=0;resizeParent=1;resizeParentMax=0;resizeLast=0;collapsible=1;marginBottom=0;html=1;rounded=0;shadow=0;fillStyle=auto;align=center;verticalAlign=top;fontFamily=Helvetica;fontSize=14;fontColor=#FFFFFF;labelBorderColor=none;labelBackgroundColor=none;swimlaneLine=0;" vertex="1" parent="1">
          <mxGeometry x="650" y="824" width="140" height="182" as="geometry" />
        </mxCell>
        <mxCell id="UpNpqDJYKlMEkV9YRlDN-11" value="id" style="text;strokeColor=none;fillColor=#000000;align=center;verticalAlign=top;spacingLeft=4;spacingRight=4;overflow=hidden;rotatable=0;points=[[0,0.5],[1,0.5]];portConstraint=eastwest;whiteSpace=wrap;html=1;fontFamily=Helvetica;fontSize=14;fontColor=#FFFFFF;labelBorderColor=default;labelBackgroundColor=#000408;" vertex="1" parent="UpNpqDJYKlMEkV9YRlDN-10">
          <mxGeometry y="26" width="140" height="26" as="geometry" />
        </mxCell>
        <mxCell id="UpNpqDJYKlMEkV9YRlDN-12" value="user_id" style="text;strokeColor=none;fillColor=#000000;align=center;verticalAlign=top;spacingLeft=4;spacingRight=4;overflow=hidden;rotatable=0;points=[[0,0.5],[1,0.5]];portConstraint=eastwest;fontFamily=Helvetica;fontSize=14;fontColor=#FFFFFF;labelBorderColor=none;labelBackgroundColor=none;html=1;" vertex="1" parent="UpNpqDJYKlMEkV9YRlDN-10">
          <mxGeometry y="52" width="140" height="26" as="geometry" />
        </mxCell>
        <mxCell id="UpNpqDJYKlMEkV9YRlDN-13" value="address1" style="text;strokeColor=none;fillColor=#000000;align=center;verticalAlign=top;spacingLeft=4;spacingRight=4;overflow=hidden;rotatable=0;points=[[0,0.5],[1,0.5]];portConstraint=eastwest;whiteSpace=wrap;html=1;fontFamily=Helvetica;fontSize=14;fontColor=#FFFFFF;labelBorderColor=default;labelBackgroundColor=#000408;" vertex="1" parent="UpNpqDJYKlMEkV9YRlDN-10">
          <mxGeometry y="78" width="140" height="26" as="geometry" />
        </mxCell>
        <mxCell id="UpNpqDJYKlMEkV9YRlDN-26" value="address2" style="text;strokeColor=none;fillColor=#000000;align=center;verticalAlign=top;spacingLeft=4;spacingRight=4;overflow=hidden;rotatable=0;points=[[0,0.5],[1,0.5]];portConstraint=eastwest;whiteSpace=wrap;html=1;fontFamily=Helvetica;fontSize=14;fontColor=#FFFFFF;labelBorderColor=default;labelBackgroundColor=#000408;" vertex="1" parent="UpNpqDJYKlMEkV9YRlDN-10">
          <mxGeometry y="104" width="140" height="26" as="geometry" />
        </mxCell>
        <mxCell id="UpNpqDJYKlMEkV9YRlDN-27" value="city" style="text;strokeColor=none;fillColor=#000000;align=center;verticalAlign=top;spacingLeft=4;spacingRight=4;overflow=hidden;rotatable=0;points=[[0,0.5],[1,0.5]];portConstraint=eastwest;whiteSpace=wrap;html=1;fontFamily=Helvetica;fontSize=14;fontColor=#FFFFFF;labelBorderColor=default;labelBackgroundColor=#000408;" vertex="1" parent="UpNpqDJYKlMEkV9YRlDN-10">
          <mxGeometry y="130" width="140" height="26" as="geometry" />
        </mxCell>
        <mxCell id="UpNpqDJYKlMEkV9YRlDN-28" value="country" style="text;strokeColor=none;fillColor=#000000;align=center;verticalAlign=top;spacingLeft=4;spacingRight=4;overflow=hidden;rotatable=0;points=[[0,0.5],[1,0.5]];portConstraint=eastwest;whiteSpace=wrap;html=1;fontFamily=Helvetica;fontSize=14;fontColor=#FFFFFF;labelBorderColor=default;labelBackgroundColor=#000408;" vertex="1" parent="UpNpqDJYKlMEkV9YRlDN-10">
          <mxGeometry y="156" width="140" height="26" as="geometry" />
        </mxCell>
        <mxCell id="UpNpqDJYKlMEkV9YRlDN-14" value="&lt;span style=&quot;&quot;&gt;order&lt;/span&gt;" style="swimlane;fontStyle=0;childLayout=stackLayout;horizontal=1;startSize=26;fillColor=#0066CC;horizontalStack=0;resizeParent=1;resizeParentMax=0;resizeLast=0;collapsible=1;marginBottom=0;html=1;rounded=0;shadow=0;fillStyle=auto;align=center;verticalAlign=top;fontFamily=Helvetica;fontSize=14;fontColor=#FFFFFF;labelBorderColor=none;labelBackgroundColor=none;" vertex="1" parent="1">
          <mxGeometry x="930" y="680" width="140" height="156" as="geometry" />
        </mxCell>
        <mxCell id="UpNpqDJYKlMEkV9YRlDN-15" value="id" style="text;strokeColor=none;fillColor=#000000;align=center;verticalAlign=top;spacingLeft=4;spacingRight=4;overflow=hidden;rotatable=0;points=[[0,0.5],[1,0.5]];portConstraint=eastwest;whiteSpace=wrap;html=1;fontFamily=Helvetica;fontSize=14;fontColor=#FFFFFF;labelBorderColor=default;labelBackgroundColor=#000408;" vertex="1" parent="UpNpqDJYKlMEkV9YRlDN-14">
          <mxGeometry y="26" width="140" height="26" as="geometry" />
        </mxCell>
        <mxCell id="UpNpqDJYKlMEkV9YRlDN-16" value="product_id" style="text;strokeColor=none;fillColor=#000000;align=center;verticalAlign=top;spacingLeft=4;spacingRight=4;overflow=hidden;rotatable=0;points=[[0,0.5],[1,0.5]];portConstraint=eastwest;whiteSpace=wrap;html=1;fontFamily=Helvetica;fontSize=14;fontColor=#FFFFFF;labelBorderColor=default;labelBackgroundColor=#000408;" vertex="1" parent="UpNpqDJYKlMEkV9YRlDN-14">
          <mxGeometry y="52" width="140" height="26" as="geometry" />
        </mxCell>
        <mxCell id="UpNpqDJYKlMEkV9YRlDN-17" value="user_id" style="text;strokeColor=none;fillColor=#000000;align=center;verticalAlign=top;spacingLeft=4;spacingRight=4;overflow=hidden;rotatable=0;points=[[0,0.5],[1,0.5]];portConstraint=eastwest;whiteSpace=wrap;html=1;fontFamily=Helvetica;fontSize=14;fontColor=#FFFFFF;labelBorderColor=default;labelBackgroundColor=#000408;" vertex="1" parent="UpNpqDJYKlMEkV9YRlDN-14">
          <mxGeometry y="78" width="140" height="26" as="geometry" />
        </mxCell>
        <mxCell id="UpNpqDJYKlMEkV9YRlDN-29" value="total" style="text;strokeColor=none;fillColor=#000000;align=center;verticalAlign=top;spacingLeft=4;spacingRight=4;overflow=hidden;rotatable=0;points=[[0,0.5],[1,0.5]];portConstraint=eastwest;whiteSpace=wrap;html=1;fontFamily=Helvetica;fontSize=14;fontColor=#FFFFFF;labelBorderColor=default;labelBackgroundColor=#000408;" vertex="1" parent="UpNpqDJYKlMEkV9YRlDN-14">
          <mxGeometry y="104" width="140" height="26" as="geometry" />
        </mxCell>
        <mxCell id="UpNpqDJYKlMEkV9YRlDN-30" value="reference" style="text;strokeColor=none;fillColor=#000000;align=center;verticalAlign=top;spacingLeft=4;spacingRight=4;overflow=hidden;rotatable=0;points=[[0,0.5],[1,0.5]];portConstraint=eastwest;whiteSpace=wrap;html=1;fontFamily=Helvetica;fontSize=14;fontColor=#FFFFFF;labelBorderColor=default;labelBackgroundColor=#000408;" vertex="1" parent="UpNpqDJYKlMEkV9YRlDN-14">
          <mxGeometry y="130" width="140" height="26" as="geometry" />
        </mxCell>
        <mxCell id="UpNpqDJYKlMEkV9YRlDN-18" value="product" style="swimlane;fontStyle=0;childLayout=stackLayout;horizontal=1;startSize=26;fillColor=#0066CC;horizontalStack=0;resizeParent=1;resizeParentMax=0;resizeLast=0;collapsible=1;marginBottom=0;html=1;rounded=0;shadow=0;fillStyle=auto;align=center;verticalAlign=top;fontFamily=Helvetica;fontSize=14;fontColor=#FFFFFF;labelBorderColor=none;labelBackgroundColor=none;" vertex="1" parent="1">
          <mxGeometry x="930" y="954" width="140" height="156" as="geometry" />
        </mxCell>
        <mxCell id="UpNpqDJYKlMEkV9YRlDN-19" value="id" style="text;strokeColor=none;fillColor=#000000;align=center;verticalAlign=top;spacingLeft=4;spacingRight=4;overflow=hidden;rotatable=0;points=[[0,0.5],[1,0.5]];portConstraint=eastwest;whiteSpace=wrap;html=1;fontFamily=Helvetica;fontSize=14;fontColor=#FFFFFF;labelBorderColor=default;labelBackgroundColor=#000408;" vertex="1" parent="UpNpqDJYKlMEkV9YRlDN-18">
          <mxGeometry y="26" width="140" height="26" as="geometry" />
        </mxCell>
        <mxCell id="UpNpqDJYKlMEkV9YRlDN-20" value="name" style="text;strokeColor=none;fillColor=#000000;align=center;verticalAlign=top;spacingLeft=4;spacingRight=4;overflow=hidden;rotatable=0;points=[[0,0.5],[1,0.5]];portConstraint=eastwest;whiteSpace=wrap;html=1;fontFamily=Helvetica;fontSize=14;fontColor=#FFFFFF;labelBorderColor=default;labelBackgroundColor=#000408;" vertex="1" parent="UpNpqDJYKlMEkV9YRlDN-18">
          <mxGeometry y="52" width="140" height="26" as="geometry" />
        </mxCell>
        <mxCell id="UpNpqDJYKlMEkV9YRlDN-21" value="description" style="text;strokeColor=none;fillColor=#000000;align=center;verticalAlign=top;spacingLeft=4;spacingRight=4;overflow=hidden;rotatable=0;points=[[0,0.5],[1,0.5]];portConstraint=eastwest;whiteSpace=wrap;html=1;fontFamily=Helvetica;fontSize=14;fontColor=#FFFFFF;labelBorderColor=default;labelBackgroundColor=#000408;" vertex="1" parent="UpNpqDJYKlMEkV9YRlDN-18">
          <mxGeometry y="78" width="140" height="26" as="geometry" />
        </mxCell>
        <mxCell id="UpNpqDJYKlMEkV9YRlDN-31" value="price" style="text;strokeColor=none;fillColor=#000000;align=center;verticalAlign=top;spacingLeft=4;spacingRight=4;overflow=hidden;rotatable=0;points=[[0,0.5],[1,0.5]];portConstraint=eastwest;whiteSpace=wrap;html=1;fontFamily=Helvetica;fontSize=14;fontColor=#FFFFFF;labelBorderColor=default;labelBackgroundColor=#000408;" vertex="1" parent="UpNpqDJYKlMEkV9YRlDN-18">
          <mxGeometry y="104" width="140" height="26" as="geometry" />
        </mxCell>
        <mxCell id="UpNpqDJYKlMEkV9YRlDN-32" value="quantity" style="text;strokeColor=none;fillColor=#000000;align=center;verticalAlign=top;spacingLeft=4;spacingRight=4;overflow=hidden;rotatable=0;points=[[0,0.5],[1,0.5]];portConstraint=eastwest;whiteSpace=wrap;html=1;fontFamily=Helvetica;fontSize=14;fontColor=#FFFFFF;labelBorderColor=default;labelBackgroundColor=#000408;" vertex="1" parent="UpNpqDJYKlMEkV9YRlDN-18">
          <mxGeometry y="130" width="140" height="26" as="geometry" />
        </mxCell>
        <mxCell id="UpNpqDJYKlMEkV9YRlDN-33" value="" style="endArrow=classic;html=1;rounded=0;fontFamily=Helvetica;fontSize=14;fontColor=#FFFFFF;labelBorderColor=default;labelBackgroundColor=#000408;" edge="1" parent="1" source="UpNpqDJYKlMEkV9YRlDN-5" target="UpNpqDJYKlMEkV9YRlDN-14">
          <mxGeometry width="50" height="50" relative="1" as="geometry">
            <mxPoint x="450" y="780" as="sourcePoint" />
            <mxPoint x="500" y="730" as="targetPoint" />
            <Array as="points">
              <mxPoint x="425" y="760" />
            </Array>
          </mxGeometry>
        </mxCell>
        <mxCell id="UpNpqDJYKlMEkV9YRlDN-34" value="" style="endArrow=classic;html=1;rounded=0;fontFamily=Helvetica;fontSize=14;fontColor=#FFFFFF;labelBorderColor=default;labelBackgroundColor=#000408;" edge="1" parent="1" source="UpNpqDJYKlMEkV9YRlDN-5" target="UpNpqDJYKlMEkV9YRlDN-10">
          <mxGeometry width="50" height="50" relative="1" as="geometry">
            <mxPoint x="530" y="900" as="sourcePoint" />
            <mxPoint x="580" y="850" as="targetPoint" />
          </mxGeometry>
        </mxCell>
        <mxCell id="UpNpqDJYKlMEkV9YRlDN-36" value="" style="endArrow=classic;html=1;rounded=0;fontFamily=Helvetica;fontSize=14;fontColor=#FFFFFF;labelBorderColor=default;labelBackgroundColor=#000408;" edge="1" parent="1" source="UpNpqDJYKlMEkV9YRlDN-14" target="UpNpqDJYKlMEkV9YRlDN-18">
          <mxGeometry width="50" height="50" relative="1" as="geometry">
            <mxPoint x="1110" y="880" as="sourcePoint" />
            <mxPoint x="1160" y="830" as="targetPoint" />
          </mxGeometry>
        </mxCell>
      </root>
    </mxGraphModel>
  </diagram>
</mxfile>
